<?xml version="1.0" encoding="UTF-8"?>
<svg width="128" height="128" viewBox="0 0 128 128" fill="none" xmlns="http://www.w3.org/2000/svg" role="img" aria-label="Default Company Logo">
  <title>Default Company Logo</title>
  <defs>
    <linearGradient id="bgGrad" x1="0" y1="0" x2="128" y2="128" gradientUnits="userSpaceOnUse">
      <stop offset="0" stop-color="#ECFDF5"/>
      <stop offset="1" stop-color="#D1FAE5"/>
    </linearGradient>
  </defs>

  <!-- Background -->
  <rect x="4" y="4" width="120" height="120" rx="16" fill="url(#bgGrad)" stroke="#10B981" stroke-opacity="0.2" stroke-width="2"/>

  <!-- Building Base -->
  <rect x="34" y="32" width="60" height="72" rx="6" fill="#F8FAFC" stroke="#10B981" stroke-width="2"/>

  <!-- Roof line -->
  <path d="M30 38 L64 22 L98 38" fill="none" stroke="#10B981" stroke-width="3" stroke-linecap="round" stroke-linejoin="round"/>

  <!-- Door -->
  <rect x="58" y="82" width="12" height="22" rx="2" fill="#10B981" fill-opacity="0.85"/>

  <!-- Windows grid -->
  <g fill="#A7F3D0" stroke="#10B981" stroke-width="1.5">
    <rect x="42" y="44" width="12" height="12" rx="2"/>
    <rect x="58" y="44" width="12" height="12" rx="2"/>
    <rect x="74" y="44" width="12" height="12" rx="2"/>

    <rect x="42" y="60" width="12" height="12" rx="2"/>
    <rect x="58" y="60" width="12" height="12" rx="2"/>
    <rect x="74" y="60" width="12" height="12" rx="2"/>
  </g>

  <!-- Badge (verified-like) -->
  <circle cx="98" cy="92" r="12" fill="#10B981"/>
  <path d="M92.8 92.2l3.2 3.1 7.2-7.4" fill="none" stroke="#FFFFFF" stroke-width="2.5" stroke-linecap="round" stroke-linejoin="round"/>
</svg>
